<?xml version="1.0" encoding="UTF-8" standalone="no"?>
<svg
   xmlns:dc="http://purl.org/dc/elements/1.1/"
   xmlns:cc="http://creativecommons.org/ns#"
   xmlns:rdf="http://www.w3.org/1999/02/22-rdf-syntax-ns#"
   xmlns:svg="http://www.w3.org/2000/svg"
   xmlns="http://www.w3.org/2000/svg"
   xmlns:sodipodi="http://sodipodi.sourceforge.net/DTD/sodipodi-0.dtd"
   xmlns:inkscape="http://www.inkscape.org/namespaces/inkscape"
   id="Capa_1"
   data-name="Capa 1"
   viewBox="0 0 60.327998 59.162996"
   version="1.1"
   sodipodi:docname="Favicon.svg"
   width="60.327999"
   height="59.162998"
   inkscape:version="0.92.3 (2405546, 2018-03-11)">
  <metadata
     id="metadata1065">
    <rdf:RDF>
      <cc:Work
         rdf:about="">
        <dc:format>image/svg+xml</dc:format>
        <dc:type
           rdf:resource="http://purl.org/dc/dcmitype/StillImage" />
        <dc:title>Logo</dc:title>
      </cc:Work>
    </rdf:RDF>
  </metadata>
  <sodipodi:namedview
     pagecolor="#ffffff"
     bordercolor="#666666"
     borderopacity="1"
     objecttolerance="10"
     gridtolerance="10"
     guidetolerance="10"
     inkscape:pageopacity="0"
     inkscape:pageshadow="2"
     inkscape:window-width="1295"
     inkscape:window-height="704"
     id="namedview1063"
     showgrid="false"
     inkscape:zoom="2.3472705"
     inkscape:cx="247.0955"
     inkscape:cy="65.468002"
     inkscape:window-x="71"
     inkscape:window-y="30"
     inkscape:window-maximized="1"
     inkscape:current-layer="Capa_1" />
  <defs
     id="defs1042">
    <style
       id="style1040">.cls-1{fill:#ed842a;}</style>
  </defs>
  <title
     id="title1044">Logo</title>
  <path
     d="m 11.744777,57.423033 q -1.741,1.739 -2.7179998,1.74 -2.5,0 -5.547,-2.5 -3.48000002325,-2.718 -3.48000002325,-6.2 0,-4.348999 7.83000002325,-14.573999 Q 19.140777,20.989033 21.099777,17.509033 a 1.676,1.676 0 0 1 1.522,-0.979 q 4.241,0 8.918,4.459 2.826,2.829 1.63,5.764 9.679,-5.111 12.944,-5.111 a 7.506,7.506 0 0 1 5.112,2.175 5.673,5.673 0 0 1 2.012,3.48 8.964,8.964 0 0 1 -1.142,4.459001 q -1.09,2.284 -5.438,9.136 -4.348,6.852 -5.221,9.679999 a 3.117,3.117 0 0 0 1.415,0.326 q 3.369,0 12.616,-6.307999 c 0.289,-0.218 0.507,-0.253 0.653,-0.109 a 0.832,0.832 0 0 1 0.109,0.762 6.653,6.653 0 0 1 -0.545,1.849 q -0.977,2.392999 -7.068,6.416999 -6.961,4.675 -10.876,4.676 -4.135,0 -7.722,-3.915 -4.241,-4.785 -1.957,-9.788999 a 46.952,46.952 0 0 1 5.982,-8.755 q 4.459,-5.491 5.546,-7.124001 a 169.064,169.064 0 0 0 -16.1,12.724001 q -8.918,13.271999 -11.745,16.096999 z m 36.87,-42.742 q -3.262,0 -5.112,-3.807 a 8.355,8.355 0 0 0 -1.251,-2.1209999 1.694,1.694 0 0 0 -1.25,-0.4889997 19.439,19.439 0 0 0 -4.35,0.9789997 38.7,38.7 0 0 0 -5.33,1.9579999 3.985,3.985 0 0 1 -0.979,0.272 0.707,0.707 0 0 1 -0.6,-0.109 0.449,0.449 0 0 1 -0.055,-0.489 q 0.87,-3.6999996 2.393,-4.9999996 6.742,-5.87300001 11.529,-5.87300001 a 3.436,3.436 0 0 1 3.48,2.71900001 q 0.868,2.72 1.739,3.154 a 19.6,19.6 0 0 0 10.332,-5.43800001 c 0.363,-0.362 0.67,-0.489 0.925,-0.38 0.255,0.109 0.308,0.489 0.163,1.14200001 a 46.393,46.393 0 0 1 -1.849,6.851 15.64,15.64 0 0 1 -3.916,4.4589996 9.215,9.215 0 0 1 -5.869,2.172 z"
     id="path1060"
     inkscape:connector-curvature="0"
     style="fill:#ed842a;fill-opacity:1" />
</svg>
