<svg id="Capa_1" data-name="Capa 1" xmlns="http://www.w3.org/2000/svg" viewBox="0 0 494.191 130.936"><defs><style>.cls-1{fill:#ed842a;}</style></defs><title>Logo</title><path d="M285.809,413.207H324.63v13.476H299.745v6.738h20.673v12.787H299.745v6.815H324.63V466.5H285.809Z" transform="translate(-285.809 -374.383)"/><path d="M352.156,438.13a15.644,15.644,0,0,1-6.432-4.288,10.364,10.364,0,0,1-2.335-7.006,13.368,13.368,0,0,1,2.335-7.81,15.041,15.041,0,0,1,6.585-5.206,24.591,24.591,0,0,1,9.839-1.838,21.555,21.555,0,0,1,9.839,2.259,17.713,17.713,0,0,1,7.082,6.317,16.794,16.794,0,0,1,2.6,9.265h-2.833a14.374,14.374,0,0,0-2.221-7.963,14.771,14.771,0,0,0-6.049-5.322,19.058,19.058,0,0,0-8.5-1.876,22.577,22.577,0,0,0-7.733,1.3,13.478,13.478,0,0,0-5.857,3.982,10.093,10.093,0,0,0-2.259,6.738,7.991,7.991,0,0,0,2.145,5.858,13.786,13.786,0,0,0,5.589,3.331,91.616,91.616,0,0,0,9.647,2.45,86.471,86.471,0,0,1,9.763,2.489,13.49,13.49,0,0,1,5.9,3.943q2.412,2.756,2.412,7.734a13.261,13.261,0,0,1-2.642,8.384,15.872,15.872,0,0,1-7.005,5.092,26.171,26.171,0,0,1-9.5,1.684,25.029,25.029,0,0,1-11.179-2.373,17.137,17.137,0,0,1-7.389-6.7,19.056,19.056,0,0,1-2.565-9.916h2.833a16.487,16.487,0,0,0,2.182,8.576,14.619,14.619,0,0,0,6.317,5.7,22.012,22.012,0,0,0,9.8,2.029,19.341,19.341,0,0,0,11.677-3.369,10.762,10.762,0,0,0,4.632-9.189,8.676,8.676,0,0,0-1.992-6.125,11.392,11.392,0,0,0-5.015-3.1q-3.027-.956-9.074-2.182A67.16,67.16,0,0,1,352.156,438.13Z" transform="translate(-285.809 -374.383)"/><path d="M439.789,413.207v2.833H419.652V466.5H416.9V416.04H396.757v-2.833Z" transform="translate(-285.809 -374.383)"/><path d="M492.239,413.207v2.833H476.313v47.626h15.926V466.5H457.706v-2.833h15.85V416.04h-15.85v-2.833Z" transform="translate(-285.809 -374.383)"/><path d="M515.132,466.5V413.207h2.833v50.459H555.1V466.5Z" transform="translate(-285.809 -374.383)"/><path d="M599.282,415.006a21.882,21.882,0,0,1,8,8,21.508,21.508,0,0,1,2.947,11.026v11.639a21.506,21.506,0,0,1-2.947,11.026,21.868,21.868,0,0,1-8,8,22.094,22.094,0,0,1-22.052,0,21.855,21.855,0,0,1-8-8,21.493,21.493,0,0,1-2.947-11.026V434.034a21.5,21.5,0,0,1,2.947-11.026,21.869,21.869,0,0,1,8-8,22.094,22.094,0,0,1,22.052,0Zm-27.6,40.276a18.988,18.988,0,0,0,6.968,6.968,19.282,19.282,0,0,0,19.22,0,19.016,19.016,0,0,0,6.968-6.968,18.763,18.763,0,0,0,2.565-9.609V434.034a18.771,18.771,0,0,0-2.565-9.61,19.04,19.04,0,0,0-6.968-6.968,19.286,19.286,0,0,0-19.22,0,19.012,19.012,0,0,0-6.968,6.968,18.746,18.746,0,0,0-2.565,9.61v11.639A18.739,18.739,0,0,0,571.679,455.282Z" transform="translate(-285.809 -374.383)"/><path class="cls-1" d="M774.8,379.58V500.123H654.26V379.58H774.8m5.2-5.2H649.063V505.32H780V374.383Z" transform="translate(-285.809 -374.383)"/><path d="M696.112,464.676q-1.741,1.739-2.718,1.74-2.5,0-5.547-2.5-3.48-2.718-3.48-6.2,0-4.349,7.83-14.574,11.311-14.9,13.27-18.38a1.676,1.676,0,0,1,1.522-.979q4.241,0,8.918,4.459,2.826,2.829,1.63,5.764,9.679-5.111,12.944-5.111a7.506,7.506,0,0,1,5.112,2.175,5.673,5.673,0,0,1,2.012,3.48,8.964,8.964,0,0,1-1.142,4.459q-1.09,2.284-5.438,9.136t-5.221,9.68a3.117,3.117,0,0,0,1.415.326q3.369,0,12.616-6.308c.289-.218.507-.253.653-.109a.832.832,0,0,1,.109.762,6.653,6.653,0,0,1-.545,1.849q-.977,2.393-7.068,6.417-6.961,4.675-10.876,4.676-4.135,0-7.722-3.915-4.241-4.785-1.957-9.789a46.952,46.952,0,0,1,5.982-8.755q4.459-5.491,5.546-7.124a169.064,169.064,0,0,0-16.1,12.724Q698.939,461.851,696.112,464.676Zm36.87-42.742q-3.262,0-5.112-3.807a8.355,8.355,0,0,0-1.251-2.121,1.694,1.694,0,0,0-1.25-.489,19.439,19.439,0,0,0-4.35.979,38.7,38.7,0,0,0-5.33,1.958,3.985,3.985,0,0,1-.979.272.707.707,0,0,1-.6-.109.449.449,0,0,1-.055-.489q.87-3.7,2.393-5,6.742-5.873,11.529-5.873a3.436,3.436,0,0,1,3.48,2.719q.868,2.72,1.739,3.154a19.6,19.6,0,0,0,10.332-5.438c.363-.362.67-.489.925-.38s.308.489.163,1.142a46.393,46.393,0,0,1-1.849,6.851,15.64,15.64,0,0,1-3.916,4.459A9.215,9.215,0,0,1,732.982,421.934Z" transform="translate(-285.809 -374.383)"/></svg>