<svg xmlns="http://www.w3.org/2000/svg" viewBox="0 0 494.191 130.936"><defs><style>.cls-1{fill:#fff;}.cls-2{fill:#ed842a;}</style></defs><title>Recurso 1</title><g id="Capa_2" data-name="Capa 2"><g id="Capa_1-2" data-name="Capa 1"><path class="cls-1" d="M0,38.823H38.821V52.3H13.936v6.738H34.609V71.825H13.936v6.815H38.821V92.116H0Z"/><path class="cls-1" d="M66.347,63.747a15.644,15.644,0,0,1-6.432-4.288,10.364,10.364,0,0,1-2.335-7.006,13.368,13.368,0,0,1,2.335-7.81A15.041,15.041,0,0,1,66.5,39.436,24.591,24.591,0,0,1,76.339,37.6a21.555,21.555,0,0,1,9.839,2.259,17.713,17.713,0,0,1,7.082,6.317,16.794,16.794,0,0,1,2.6,9.265H93.032a14.374,14.374,0,0,0-2.221-7.963,14.771,14.771,0,0,0-6.049-5.322,19.058,19.058,0,0,0-8.5-1.876,22.577,22.577,0,0,0-7.733,1.3,13.478,13.478,0,0,0-5.857,3.982A10.093,10.093,0,0,0,60.412,52.3a7.991,7.991,0,0,0,2.145,5.858,13.786,13.786,0,0,0,5.589,3.331,91.616,91.616,0,0,0,9.647,2.45,86.471,86.471,0,0,1,9.763,2.489,13.49,13.49,0,0,1,5.9,3.943q2.412,2.756,2.412,7.734a13.261,13.261,0,0,1-2.642,8.384,15.872,15.872,0,0,1-7.005,5.092,26.171,26.171,0,0,1-9.5,1.684,25.029,25.029,0,0,1-11.179-2.373,17.137,17.137,0,0,1-7.389-6.7,19.056,19.056,0,0,1-2.565-9.916h2.833A16.487,16.487,0,0,0,60.6,82.851a14.619,14.619,0,0,0,6.317,5.7,22.012,22.012,0,0,0,9.8,2.029A19.341,19.341,0,0,0,88.4,87.215a10.762,10.762,0,0,0,4.632-9.189A8.676,8.676,0,0,0,91.04,71.9a11.392,11.392,0,0,0-5.015-3.1Q83,67.844,76.951,66.618A67.16,67.16,0,0,1,66.347,63.747Z"/><path class="cls-1" d="M153.98,38.823v2.833H133.843v50.46h-2.757V41.656H110.948V38.823Z"/><path class="cls-1" d="M206.43,38.823v2.833H190.5V89.282H206.43v2.833H171.9V89.282h15.85V41.656H171.9V38.823Z"/><path class="cls-1" d="M229.323,92.116V38.823h2.833V89.282h37.137v2.833Z"/><path class="cls-1" d="M313.473,40.622a21.882,21.882,0,0,1,8,8,21.508,21.508,0,0,1,2.947,11.026V71.289a21.506,21.506,0,0,1-2.947,11.026,21.868,21.868,0,0,1-8,8,22.094,22.094,0,0,1-22.052,0,21.855,21.855,0,0,1-8-8,21.493,21.493,0,0,1-2.947-11.026V59.65a21.5,21.5,0,0,1,2.947-11.026,21.869,21.869,0,0,1,8-8,22.094,22.094,0,0,1,22.052,0ZM285.87,80.9a18.988,18.988,0,0,0,6.968,6.968,19.282,19.282,0,0,0,19.22,0,19.016,19.016,0,0,0,6.968-6.968,18.763,18.763,0,0,0,2.565-9.609V59.65a18.771,18.771,0,0,0-2.565-9.61,19.04,19.04,0,0,0-6.968-6.968,19.286,19.286,0,0,0-19.22,0,19.012,19.012,0,0,0-6.968,6.968,18.746,18.746,0,0,0-2.565,9.61V71.289A18.739,18.739,0,0,0,285.87,80.9Z"/><path class="cls-2" d="M488.994,5.2V125.74H368.451V5.2H488.994m5.2-5.2H363.254V130.936H494.191V0Z"/><path class="cls-1" d="M410.3,90.293q-1.741,1.739-2.718,1.74-2.5,0-5.547-2.5-3.48-2.718-3.48-6.2,0-4.349,7.83-14.574,11.311-14.9,13.27-18.38a1.676,1.676,0,0,1,1.522-.979q4.241,0,8.918,4.459,2.826,2.829,1.63,5.764,9.679-5.111,12.944-5.111a7.506,7.506,0,0,1,5.112,2.175,5.673,5.673,0,0,1,2.012,3.48,8.964,8.964,0,0,1-1.142,4.459q-1.09,2.284-5.438,9.136t-5.221,9.68a3.117,3.117,0,0,0,1.415.326q3.369,0,12.616-6.308c.289-.218.507-.253.653-.109a.832.832,0,0,1,.109.762,6.653,6.653,0,0,1-.545,1.849q-.977,2.393-7.068,6.417-6.961,4.675-10.876,4.676-4.135,0-7.722-3.915-4.241-4.785-1.957-9.789A46.952,46.952,0,0,1,432.6,68.6q4.459-5.491,5.546-7.124a169.064,169.064,0,0,0-16.1,12.724Q413.13,87.467,410.3,90.293Zm36.87-42.742q-3.262,0-5.112-3.807a8.355,8.355,0,0,0-1.251-2.121,1.694,1.694,0,0,0-1.25-.489,19.439,19.439,0,0,0-4.35.979,38.7,38.7,0,0,0-5.33,1.958,3.985,3.985,0,0,1-.979.272.707.707,0,0,1-.6-.109.449.449,0,0,1-.055-.489q.87-3.7,2.393-5,6.742-5.873,11.529-5.873a3.436,3.436,0,0,1,3.48,2.719q.868,2.72,1.739,3.154A19.6,19.6,0,0,0,457.721,33.3c.363-.362.67-.489.925-.38s.308.489.163,1.142a46.393,46.393,0,0,1-1.849,6.851,15.64,15.64,0,0,1-3.916,4.459A9.215,9.215,0,0,1,447.173,47.55Z"/></g></g></svg>